<svg width="60" height="60" viewBox="0 0 160 160" fill="none" xmlns="http://www.w3.org/2000/svg">
                <path d="M0 30C0 13.4315 13.4315 0 30 0H130C146.569 0 160 13.4315 160 30V130C160 146.569 146.569 160 130 160H30C13.4315 160 0 146.569 0 130V30Z" fill="white"/>
                <path d="M97 80C97 88.8366 89.3888 96 80 96C70.6112 96 63 88.8366 63 80C63 71.1634 70.6112 64 80 64C89.3888 64 97 71.1634 97 80ZM72.4147 80C72.4147 83.9428 75.8107 87.1391 80 87.1391C84.1893 87.1391 87.5853 83.9428 87.5853 80C87.5853 76.0572 84.1893 72.8609 80 72.8609C75.8107 72.8609 72.4147 76.0572 72.4147 80Z" fill="#F3C4C4"/>
                <path d="M126.995 97.0725C123.618 106.367 117.561 114.452 109.59 120.304C101.619 126.157 92.0907 129.514 82.2113 129.951C72.3319 130.388 62.5447 127.886 54.0873 122.761C45.6299 117.636 38.8822 110.118 34.6975 101.158C30.5127 92.1984 29.0789 82.1987 30.5774 72.4238C32.0758 62.6489 36.4391 53.5379 43.1157 46.2429C49.7922 38.9478 58.482 33.7964 68.0863 31.4401C77.6905 29.0838 87.7778 29.6284 97.0725 33.005L89.5232 53.7859C84.3385 51.9024 78.7118 51.5986 73.3545 52.913C67.9972 54.2274 63.1499 57.1008 59.4257 61.1701C55.7015 65.2393 53.2676 70.3215 52.4317 75.774C51.5959 81.2265 52.3957 86.8044 54.73 91.8023C57.0642 96.8003 60.8282 100.994 65.5458 103.853C70.2633 106.711 75.7227 108.107 81.2335 107.863C86.7443 107.619 92.059 105.746 96.5055 102.482C100.952 99.2175 104.331 94.7078 106.214 89.5231L126.995 97.0725Z" fill="#EF31C5"/>
                </svg>