<svg width="360" height="360" viewBox="0 0 360 360" fill="none" xmlns="http://www.w3.org/2000/svg">
<rect width="360" height="360" fill="white"/>
<path d="M229.5 255.75C229.5 255.75 242 255.75 242 243.125C242 230.5 229.5 192.625 179.5 192.625C129.5 192.625 117 230.5 117 243.125C117 255.75 129.5 255.75 129.5 255.75H229.5ZM129.779 243.125C129.736 243.12 129.675 243.112 129.602 243.1C129.567 243.094 129.533 243.088 129.5 243.081C129.518 239.748 131.586 230.082 138.991 221.357C145.917 213.196 158.034 205.25 179.5 205.25C200.966 205.25 213.083 213.196 220.009 221.357C227.414 230.082 229.482 239.748 229.5 243.081C229.467 243.088 229.433 243.094 229.398 243.1C229.325 243.112 229.264 243.12 229.221 243.125H129.779Z" fill="black"/>
<path d="M179.5 167.375C193.307 167.375 204.5 156.07 204.5 142.125C204.5 128.18 193.307 116.875 179.5 116.875C165.693 116.875 154.5 128.18 154.5 142.125C154.5 156.07 165.693 167.375 179.5 167.375ZM217 142.125C217 163.043 200.211 180 179.5 180C158.789 180 142 163.043 142 142.125C142 121.207 158.789 104.25 179.5 104.25C200.211 104.25 217 121.207 217 142.125Z" fill="black"/>
<path d="M128.699 196.16C124.102 194.674 118.994 193.595 113.329 193.042C110.524 192.769 107.584 192.625 104.5 192.625C54.5 192.625 42 230.5 42 243.125C42 251.542 46.1667 255.75 54.5 255.75H107.205C105.445 252.163 104.5 247.912 104.5 243.125C104.5 230.37 109.216 217.345 118.123 206.464C121.166 202.747 124.698 199.28 128.699 196.16ZM103.501 205.256C96.0319 216.784 92 229.928 92 243.125H54.5C54.5 239.833 56.5531 230.121 63.9907 221.357C70.8086 213.323 82.6562 205.498 103.501 205.256Z" fill="black"/>
<path d="M60.75 148.438C60.75 127.52 77.5393 110.562 98.25 110.562C118.961 110.562 135.75 127.52 135.75 148.438C135.75 169.355 118.961 186.312 98.25 186.312C77.5393 186.312 60.75 169.355 60.75 148.438ZM98.25 123.188C84.4429 123.188 73.25 134.492 73.25 148.438C73.25 162.383 84.4429 173.688 98.25 173.688C112.057 173.688 123.25 162.383 123.25 148.438C123.25 134.492 112.057 123.188 98.25 123.188Z" fill="black"/>
<path d="M224 148.185C224 127.267 240.789 110.31 261.5 110.31C282.211 110.31 299 127.267 299 148.185C299 169.103 282.211 186.06 261.5 186.06C240.789 186.06 224 169.103 224 148.185ZM261.5 122.935C247.693 122.935 236.5 134.24 236.5 148.185C236.5 162.13 247.693 173.435 261.5 173.435C275.307 173.435 286.5 162.13 286.5 148.185C286.5 134.24 275.307 122.935 261.5 122.935Z" fill="black"/>
<path d="M232 196.535C236.597 195.049 241.705 193.97 247.371 193.417C250.175 193.144 253.116 193 256.199 193C306.2 193 318.7 230.878 318.7 243.504C318.7 251.921 314.533 256.13 306.2 256.13H253.495C255.255 252.543 256.199 248.291 256.199 243.504C256.199 230.748 251.484 217.722 242.576 206.841C239.533 203.123 236.001 199.655 232 196.535ZM257.199 205.632C264.667 217.161 268.699 230.306 268.699 243.504H306.2C306.2 240.212 304.147 230.499 296.709 221.734C289.891 213.7 278.043 205.874 257.199 205.632Z" fill="black"/>
</svg>
