<svg width="600" height="360" viewBox="0 0 600 360" fill="none" xmlns="http://www.w3.org/2000/svg">
<rect width="600" height="360" fill="white"/>
<path d="M116.571 136.727L131.827 170.861H132.509L159.014 136.727H174.483L140.136 180.364L160.165 224H144.952L129.611 190.335H128.929L102.338 224H86.8693L122.026 180.364L101.528 136.727H116.571Z" fill="#8261EE"/>
<path d="M116.571 136.727L121.136 134.687L119.813 131.727H116.571V136.727ZM131.827 170.861L127.262 172.901L128.585 175.861H131.827V170.861ZM132.509 170.861V175.861H134.956L136.458 173.927L132.509 170.861ZM159.014 136.727V131.727H156.566L155.065 133.661L159.014 136.727ZM174.483 136.727L178.412 139.82L184.782 131.727H174.483V136.727ZM140.136 180.364L136.207 177.271L134.318 179.672L135.592 182.449L140.136 180.364ZM160.165 224V229H167.961L164.709 221.914L160.165 224ZM144.952 224L140.402 226.073L141.736 229H144.952V224ZM129.611 190.335L134.161 188.262L132.827 185.335H129.611V190.335ZM128.929 190.335V185.335H126.507L125.005 187.236L128.929 190.335ZM102.338 224V229H104.76L106.262 227.099L102.338 224ZM86.8693 224L82.9758 220.863L76.4201 229H86.8693V224ZM122.026 180.364L125.919 183.501L127.88 181.067L126.551 178.238L122.026 180.364ZM101.528 136.727V131.727H93.6556L97.0028 138.853L101.528 136.727ZM112.006 138.767L127.262 172.901L136.392 168.821L121.136 134.687L112.006 138.767ZM131.827 175.861H132.509V165.861H131.827V175.861ZM136.458 173.927L162.963 139.794L155.065 133.661L128.559 167.794L136.458 173.927ZM159.014 141.727H174.483V131.727H159.014V141.727ZM170.554 133.635L136.207 177.271L144.065 183.456L178.412 139.82L170.554 133.635ZM135.592 182.449L155.621 226.086L164.709 221.914L144.681 178.278L135.592 182.449ZM160.165 219H144.952V229H160.165V219ZM149.502 221.927L134.161 188.262L125.061 192.409L140.402 226.073L149.502 221.927ZM129.611 185.335H128.929V195.335H129.611V185.335ZM125.005 187.236L98.4144 220.901L106.262 227.099L132.853 193.434L125.005 187.236ZM102.338 219H86.8693V229H102.338V219ZM90.7629 227.137L125.919 183.501L118.132 177.227L82.9758 220.863L90.7629 227.137ZM126.551 178.238L106.054 134.601L97.0028 138.853L117.5 182.489L126.551 178.238ZM101.528 141.727H116.571V131.727H101.528V141.727Z" fill="black"/>
<path d="M199.54 222.136C194.284 222.136 189.75 220.976 185.939 218.656C182.151 216.312 179.227 213.045 177.168 208.855C175.132 204.641 174.114 199.741 174.114 194.153C174.114 188.566 175.132 183.642 177.168 179.381C179.227 175.096 182.092 171.758 185.761 169.366C189.455 166.952 193.763 165.744 198.688 165.744C201.528 165.744 204.334 166.218 207.104 167.165C209.874 168.112 212.395 169.651 214.668 171.781C216.94 173.888 218.751 176.682 220.101 180.162C221.45 183.642 222.125 187.927 222.125 193.017V196.568H180.08V189.324H213.602C213.602 186.246 212.987 183.5 211.756 181.085C210.548 178.67 208.82 176.765 206.571 175.368C204.346 173.971 201.718 173.273 198.688 173.273C195.349 173.273 192.461 174.101 190.023 175.759C187.608 177.392 185.75 179.523 184.447 182.151C183.145 184.778 182.494 187.596 182.494 190.602V195.432C182.494 199.551 183.205 203.043 184.625 205.908C186.069 208.749 188.07 210.915 190.626 212.406C193.183 213.874 196.154 214.608 199.54 214.608C201.741 214.608 203.73 214.3 205.506 213.685C207.305 213.045 208.856 212.098 210.158 210.844C211.46 209.565 212.466 207.979 213.176 206.085L221.273 208.358C220.42 211.104 218.988 213.519 216.976 215.602C214.964 217.662 212.478 219.272 209.518 220.432C206.559 221.568 203.233 222.136 199.54 222.136Z" fill="white"/>
<path d="M185.939 218.656L183.308 222.908L183.324 222.918L183.339 222.927L185.939 218.656ZM177.168 208.855L172.666 211.03L172.673 211.046L172.68 211.061L177.168 208.855ZM177.168 179.381L172.661 177.215L172.656 177.225L177.168 179.381ZM185.761 169.366L188.491 173.556L188.498 173.551L185.761 169.366ZM207.104 167.165L208.721 162.434L208.721 162.434L207.104 167.165ZM214.668 171.781L211.248 175.429L211.258 175.438L211.268 175.448L214.668 171.781ZM220.101 180.162L224.763 178.354L224.763 178.354L220.101 180.162ZM222.125 196.568V201.568H227.125V196.568H222.125ZM180.08 196.568H175.08V201.568H180.08V196.568ZM180.08 189.324V184.324H175.08V189.324H180.08ZM213.602 189.324V194.324H218.602V189.324H213.602ZM211.756 181.085L207.284 183.321L207.292 183.339L207.301 183.356L211.756 181.085ZM206.571 175.368L203.913 179.603L203.923 179.609L203.933 179.615L206.571 175.368ZM190.023 175.759L192.824 179.9L192.833 179.894L190.023 175.759ZM184.447 182.151L179.967 179.931H179.967L184.447 182.151ZM184.625 205.908L180.145 208.129L180.157 208.151L180.168 208.173L184.625 205.908ZM190.626 212.406L188.107 216.725L188.122 216.734L188.137 216.743L190.626 212.406ZM205.506 213.685L207.143 218.409L207.161 218.403L207.18 218.396L205.506 213.685ZM210.158 210.844L213.627 214.444L213.644 214.428L213.661 214.412L210.158 210.844ZM213.176 206.085L214.527 201.271L210.107 200.03L208.494 204.33L213.176 206.085ZM221.273 208.358L226.048 209.84L227.571 204.933L222.624 203.544L221.273 208.358ZM216.976 215.602L220.552 219.096L220.562 219.086L220.572 219.076L216.976 215.602ZM209.518 220.432L211.311 225.1L211.327 225.093L211.343 225.087L209.518 220.432ZM199.54 217.136C195.036 217.136 191.437 216.149 188.539 214.385L183.339 222.927C188.064 225.803 193.532 227.136 199.54 227.136V217.136ZM188.57 214.404C185.62 212.579 183.321 210.04 181.655 206.65L172.68 211.061C175.133 216.051 178.682 220.046 183.308 222.908L188.57 214.404ZM181.67 206.68C180.019 203.263 179.114 199.132 179.114 194.153H169.114C169.114 200.349 170.244 206.019 172.666 211.03L181.67 206.68ZM179.114 194.153C179.114 189.177 180.018 185.012 181.679 181.536L172.656 177.225C170.245 182.272 169.114 187.956 169.114 194.153H179.114ZM181.674 181.547C183.373 178.013 185.653 175.405 188.491 173.556L183.032 165.177C178.531 168.11 175.082 172.178 172.661 177.215L181.674 181.547ZM188.498 173.551C191.285 171.729 194.619 170.744 198.688 170.744V160.744C192.908 160.744 187.624 162.175 183.025 165.182L188.498 173.551ZM198.688 170.744C200.961 170.744 203.221 171.121 205.486 171.896L208.721 162.434C205.447 161.314 202.095 160.744 198.688 160.744V170.744ZM205.486 171.896C207.543 172.599 209.459 173.751 211.248 175.429L218.087 168.134C215.331 165.55 212.204 163.624 208.721 162.434L205.486 171.896ZM211.268 175.448C212.882 176.944 214.309 179.054 215.439 181.97L224.763 178.354C223.194 174.309 220.998 170.832 218.067 168.115L211.268 175.448ZM215.439 181.97C216.5 184.705 217.125 188.335 217.125 193.017H227.125C227.125 187.519 226.401 182.579 224.763 178.354L215.439 181.97ZM217.125 193.017V196.568H227.125V193.017H217.125ZM222.125 191.568H180.08V201.568H222.125V191.568ZM185.08 196.568V189.324H175.08V196.568H185.08ZM180.08 194.324H213.602V184.324H180.08V194.324ZM218.602 189.324C218.602 185.565 217.846 182.022 216.21 178.814L207.301 183.356C208.128 184.978 208.602 186.928 208.602 189.324H218.602ZM216.228 178.849C214.615 175.624 212.26 173.015 209.209 171.12L203.933 179.615C205.38 180.514 206.481 181.717 207.284 183.321L216.228 178.849ZM209.229 171.133C206.091 169.163 202.511 168.273 198.688 168.273V178.273C200.925 178.273 202.6 178.779 203.913 179.603L209.229 171.133ZM198.688 168.273C194.484 168.273 190.586 169.33 187.212 171.623L192.833 179.894C194.336 178.873 196.215 178.273 198.688 178.273V168.273ZM187.221 171.617C184.086 173.738 181.651 176.533 179.967 179.931L188.928 184.37C189.848 182.513 191.13 181.046 192.824 179.9L187.221 171.617ZM179.967 179.931C178.314 183.266 177.494 186.846 177.494 190.602H187.494C187.494 188.346 187.976 186.29 188.928 184.37L179.967 179.931ZM177.494 190.602V195.432H187.494V190.602H177.494ZM177.494 195.432C177.494 200.107 178.299 204.404 180.145 208.129L189.105 203.686C188.111 201.682 187.494 198.995 187.494 195.432H177.494ZM180.168 208.173C182.012 211.802 184.656 214.712 188.107 216.725L193.146 208.087C191.483 207.117 190.126 205.695 189.082 203.642L180.168 208.173ZM188.137 216.743C191.558 218.706 195.412 219.608 199.54 219.608V209.608C196.897 209.608 194.809 209.042 193.116 208.07L188.137 216.743ZM199.54 219.608C202.205 219.608 204.759 219.235 207.143 218.409L203.868 208.96C202.701 209.365 201.278 209.608 199.54 209.608V219.608ZM207.18 218.396C209.611 217.532 211.784 216.22 213.627 214.444L206.688 207.243C205.927 207.977 204.999 208.559 203.832 208.973L207.18 218.396ZM213.661 214.412C215.537 212.569 216.92 210.343 217.858 207.841L208.494 204.33C208.012 205.615 207.382 206.562 206.655 207.276L213.661 214.412ZM211.825 210.899L219.921 213.172L222.624 203.544L214.527 201.271L211.825 210.899ZM216.497 206.876C215.879 208.87 214.853 210.604 213.38 212.129L220.572 219.076C223.124 216.434 224.962 213.339 226.048 209.84L216.497 206.876ZM213.399 212.108C211.931 213.611 210.062 214.848 207.694 215.777L211.343 225.087C214.893 223.695 217.996 221.713 220.552 219.096L213.399 212.108ZM207.726 215.764C205.425 216.648 202.72 217.136 199.54 217.136V227.136C203.746 227.136 207.693 226.489 211.311 225.1L207.726 215.764Z" fill="black"/>
<path d="M235.67 221V166.455H243.767V174.693H244.335C245.33 171.994 247.129 169.804 249.733 168.124C252.337 166.443 255.273 165.602 258.54 165.602C259.155 165.602 259.925 165.614 260.848 165.638C261.771 165.661 262.47 165.697 262.943 165.744V174.267C262.659 174.196 262.008 174.089 260.99 173.947C259.996 173.782 258.942 173.699 257.83 173.699C255.178 173.699 252.811 174.255 250.727 175.368C248.668 176.457 247.034 177.972 245.827 179.913C244.643 181.831 244.051 184.021 244.051 186.483V221H235.67Z" fill="white"/>
<path d="M235.67 221H230.67V226H235.67V221ZM235.67 166.455V161.455H230.67V166.455H235.67ZM243.767 166.455H248.767V161.455H243.767V166.455ZM243.767 174.693H238.767V179.693H243.767V174.693ZM244.335 174.693V179.693H247.822L249.027 176.422L244.335 174.693ZM249.733 168.124L247.021 163.923L247.021 163.923L249.733 168.124ZM262.943 165.744H267.943V161.219L263.441 160.769L262.943 165.744ZM262.943 174.267L261.731 179.118L267.943 180.671V174.267H262.943ZM260.99 173.947L260.168 178.879L260.233 178.89L260.299 178.899L260.99 173.947ZM250.727 175.368L253.064 179.788L253.074 179.783L253.083 179.778L250.727 175.368ZM245.827 179.913L241.581 177.273L241.576 177.28L241.572 177.287L245.827 179.913ZM244.051 221V226H249.051V221H244.051ZM240.67 221V166.455H230.67V221H240.67ZM235.67 171.455H243.767V161.455H235.67V171.455ZM238.767 166.455V174.693H248.767V166.455H238.767ZM243.767 179.693H244.335V169.693H243.767V179.693ZM249.027 176.422C249.617 174.821 250.676 173.466 252.444 172.324L247.021 163.923C243.582 166.143 241.042 169.168 239.644 172.965L249.027 176.422ZM252.444 172.324C254.196 171.194 256.18 170.602 258.54 170.602V160.602C254.365 160.602 250.478 161.691 247.021 163.923L252.444 172.324ZM258.54 170.602C259.097 170.602 259.82 170.613 260.72 170.636L260.976 160.639C260.029 160.615 259.213 160.602 258.54 160.602V170.602ZM260.72 170.636C261.611 170.659 262.161 170.691 262.446 170.72L263.441 160.769C262.778 160.703 261.931 160.664 260.976 160.639L260.72 170.636ZM257.943 165.744V174.267H267.943V165.744H257.943ZM264.156 169.416C263.561 169.268 262.624 169.127 261.681 168.995L260.299 178.899C260.788 178.968 261.163 179.024 261.434 179.068C261.57 179.09 261.666 179.107 261.729 179.119C261.802 179.133 261.791 179.133 261.731 179.118L264.156 169.416ZM261.812 169.015C260.52 168.8 259.19 168.699 257.83 168.699V178.699C258.695 178.699 259.472 178.763 260.168 178.879L261.812 169.015ZM257.83 168.699C254.459 168.699 251.265 169.412 248.372 170.958L253.083 179.778C254.356 179.098 255.897 178.699 257.83 178.699V168.699ZM248.39 170.948C245.564 172.442 243.265 174.565 241.581 177.273L250.073 182.554C250.803 181.379 251.772 180.472 253.064 179.788L248.39 170.948ZM241.572 177.287C239.856 180.066 239.051 183.182 239.051 186.483H249.051C249.051 184.86 249.43 183.596 250.081 182.54L241.572 177.287ZM239.051 186.483V221H249.051V186.483H239.051ZM244.051 216H235.67V226H244.051V216Z" fill="black"/>
<path d="M296.54 222.136C291.284 222.136 286.75 220.976 282.939 218.656C279.151 216.312 276.227 213.045 274.168 208.855C272.132 204.641 271.114 199.741 271.114 194.153C271.114 188.566 272.132 183.642 274.168 179.381C276.227 175.096 279.092 171.758 282.761 169.366C286.455 166.952 290.763 165.744 295.688 165.744C298.528 165.744 301.334 166.218 304.104 167.165C306.874 168.112 309.395 169.651 311.668 171.781C313.94 173.888 315.751 176.682 317.101 180.162C318.45 183.642 319.125 187.927 319.125 193.017V196.568H277.08V189.324H310.602C310.602 186.246 309.987 183.5 308.756 181.085C307.548 178.67 305.82 176.765 303.571 175.368C301.346 173.971 298.718 173.273 295.688 173.273C292.349 173.273 289.461 174.101 287.023 175.759C284.608 177.392 282.75 179.523 281.447 182.151C280.145 184.778 279.494 187.596 279.494 190.602V195.432C279.494 199.551 280.205 203.043 281.625 205.908C283.069 208.749 285.07 210.915 287.626 212.406C290.183 213.874 293.154 214.608 296.54 214.608C298.741 214.608 300.73 214.3 302.506 213.685C304.305 213.045 305.856 212.098 307.158 210.844C308.46 209.565 309.466 207.979 310.176 206.085L318.273 208.358C317.42 211.104 315.988 213.519 313.976 215.602C311.964 217.662 309.478 219.272 306.518 220.432C303.559 221.568 300.233 222.136 296.54 222.136Z" fill="white"/>
<path d="M282.939 218.656L280.308 222.908L280.324 222.918L280.339 222.927L282.939 218.656ZM274.168 208.855L269.666 211.03L269.673 211.046L269.68 211.061L274.168 208.855ZM274.168 179.381L269.661 177.215L269.656 177.225L274.168 179.381ZM282.761 169.366L285.491 173.556L285.498 173.551L282.761 169.366ZM304.104 167.165L305.721 162.434L305.721 162.434L304.104 167.165ZM311.668 171.781L308.248 175.429L308.258 175.438L308.268 175.448L311.668 171.781ZM317.101 180.162L321.763 178.354L321.763 178.354L317.101 180.162ZM319.125 196.568V201.568H324.125V196.568H319.125ZM277.08 196.568H272.08V201.568H277.08V196.568ZM277.08 189.324V184.324H272.08V189.324H277.08ZM310.602 189.324V194.324H315.602V189.324H310.602ZM308.756 181.085L304.284 183.321L304.292 183.339L304.301 183.356L308.756 181.085ZM303.571 175.368L300.913 179.603L300.923 179.609L300.933 179.615L303.571 175.368ZM287.023 175.759L289.824 179.9L289.833 179.894L287.023 175.759ZM281.447 182.151L276.967 179.931H276.967L281.447 182.151ZM281.625 205.908L277.145 208.129L277.157 208.151L277.168 208.173L281.625 205.908ZM287.626 212.406L285.107 216.725L285.122 216.734L285.137 216.743L287.626 212.406ZM302.506 213.685L304.143 218.409L304.161 218.403L304.18 218.396L302.506 213.685ZM307.158 210.844L310.627 214.444L310.644 214.428L310.661 214.412L307.158 210.844ZM310.176 206.085L311.527 201.271L307.107 200.03L305.494 204.33L310.176 206.085ZM318.273 208.358L323.048 209.84L324.571 204.933L319.624 203.544L318.273 208.358ZM313.976 215.602L317.552 219.096L317.562 219.086L317.572 219.076L313.976 215.602ZM306.518 220.432L308.311 225.1L308.327 225.093L308.343 225.087L306.518 220.432ZM296.54 217.136C292.036 217.136 288.437 216.149 285.539 214.385L280.339 222.927C285.064 225.803 290.532 227.136 296.54 227.136V217.136ZM285.57 214.404C282.62 212.579 280.321 210.04 278.655 206.65L269.68 211.061C272.133 216.051 275.682 220.046 280.308 222.908L285.57 214.404ZM278.67 206.68C277.019 203.263 276.114 199.132 276.114 194.153H266.114C266.114 200.349 267.244 206.019 269.666 211.03L278.67 206.68ZM276.114 194.153C276.114 189.177 277.018 185.012 278.679 181.536L269.656 177.225C267.245 182.272 266.114 187.956 266.114 194.153H276.114ZM278.674 181.547C280.373 178.013 282.653 175.405 285.491 173.556L280.032 165.177C275.531 168.11 272.082 172.178 269.661 177.215L278.674 181.547ZM285.498 173.551C288.285 171.729 291.619 170.744 295.688 170.744V160.744C289.908 160.744 284.624 162.175 280.025 165.182L285.498 173.551ZM295.688 170.744C297.961 170.744 300.221 171.121 302.486 171.896L305.721 162.434C302.447 161.314 299.095 160.744 295.688 160.744V170.744ZM302.486 171.896C304.543 172.599 306.459 173.751 308.248 175.429L315.087 168.134C312.331 165.55 309.204 163.624 305.721 162.434L302.486 171.896ZM308.268 175.448C309.882 176.944 311.309 179.054 312.439 181.97L321.763 178.354C320.194 174.309 317.998 170.832 315.067 168.115L308.268 175.448ZM312.439 181.97C313.5 184.705 314.125 188.335 314.125 193.017H324.125C324.125 187.519 323.401 182.579 321.763 178.354L312.439 181.97ZM314.125 193.017V196.568H324.125V193.017H314.125ZM319.125 191.568H277.08V201.568H319.125V191.568ZM282.08 196.568V189.324H272.08V196.568H282.08ZM277.08 194.324H310.602V184.324H277.08V194.324ZM315.602 189.324C315.602 185.565 314.846 182.022 313.21 178.814L304.301 183.356C305.128 184.978 305.602 186.928 305.602 189.324H315.602ZM313.228 178.849C311.615 175.624 309.26 173.015 306.209 171.12L300.933 179.615C302.38 180.514 303.481 181.717 304.284 183.321L313.228 178.849ZM306.229 171.133C303.091 169.163 299.511 168.273 295.688 168.273V178.273C297.925 178.273 299.6 178.779 300.913 179.603L306.229 171.133ZM295.688 168.273C291.484 168.273 287.586 169.33 284.212 171.623L289.833 179.894C291.336 178.873 293.215 178.273 295.688 178.273V168.273ZM284.221 171.617C281.086 173.738 278.651 176.533 276.967 179.931L285.928 184.37C286.848 182.513 288.13 181.046 289.824 179.9L284.221 171.617ZM276.967 179.931C275.314 183.266 274.494 186.846 274.494 190.602H284.494C284.494 188.346 284.976 186.29 285.928 184.37L276.967 179.931ZM274.494 190.602V195.432H284.494V190.602H274.494ZM274.494 195.432C274.494 200.107 275.299 204.404 277.145 208.129L286.105 203.686C285.111 201.682 284.494 198.995 284.494 195.432H274.494ZM277.168 208.173C279.012 211.802 281.656 214.712 285.107 216.725L290.146 208.087C288.483 207.117 287.126 205.695 286.082 203.642L277.168 208.173ZM285.137 216.743C288.558 218.706 292.412 219.608 296.54 219.608V209.608C293.897 209.608 291.809 209.042 290.116 208.07L285.137 216.743ZM296.54 219.608C299.205 219.608 301.759 219.235 304.143 218.409L300.868 208.96C299.701 209.365 298.278 209.608 296.54 209.608V219.608ZM304.18 218.396C306.611 217.532 308.784 216.22 310.627 214.444L303.688 207.243C302.927 207.977 301.999 208.559 300.832 208.973L304.18 218.396ZM310.661 214.412C312.537 212.569 313.92 210.343 314.858 207.841L305.494 204.33C305.012 205.615 304.382 206.562 303.655 207.276L310.661 214.412ZM308.825 210.899L316.921 213.172L319.624 203.544L311.527 201.271L308.825 210.899ZM313.497 206.876C312.879 208.87 311.853 210.604 310.38 212.129L317.572 219.076C320.124 216.434 321.962 213.339 323.048 209.84L313.497 206.876ZM310.399 212.108C308.931 213.611 307.062 214.848 304.694 215.777L308.343 225.087C311.893 223.695 314.996 221.713 317.552 219.096L310.399 212.108ZM304.726 215.764C302.425 216.648 299.72 217.136 296.54 217.136V227.136C300.746 227.136 304.693 226.489 308.311 225.1L304.726 215.764Z" fill="black"/>
<path d="M334.807 221V148.273H360.233C365.299 148.273 369.478 149.149 372.768 150.901C376.059 152.629 378.509 154.961 380.119 157.896C381.729 160.808 382.534 164.04 382.534 167.591C382.534 170.716 381.978 173.296 380.865 175.332C379.776 177.368 378.332 178.978 376.533 180.162C374.757 181.346 372.828 182.222 370.744 182.79V183.5C372.97 183.642 375.207 184.423 377.456 185.844C379.705 187.264 381.587 189.3 383.102 191.952C384.617 194.603 385.375 197.847 385.375 201.682C385.375 205.328 384.546 208.607 382.889 211.518C381.232 214.43 378.616 216.739 375.041 218.443C371.466 220.148 366.814 221 361.085 221H334.807ZM343.614 213.188H361.085C366.838 213.188 370.922 212.075 373.337 209.849C375.775 207.6 376.994 204.878 376.994 201.682C376.994 199.22 376.367 196.947 375.112 194.864C373.857 192.757 372.07 191.076 369.75 189.821C367.43 188.543 364.684 187.903 361.511 187.903H343.614V213.188ZM343.614 180.233H359.949C362.6 180.233 364.991 179.712 367.122 178.67C369.277 177.629 370.981 176.161 372.236 174.267C373.514 172.373 374.153 170.148 374.153 167.591C374.153 164.395 373.041 161.684 370.815 159.459C368.59 157.21 365.063 156.085 360.233 156.085H343.614V180.233Z" fill="#E83E8C"/>
<path d="M334.807 221H329.807V226H334.807V221ZM334.807 148.273V143.273H329.807V148.273H334.807ZM372.768 150.901L370.419 155.314L370.431 155.321L370.444 155.327L372.768 150.901ZM380.119 157.896L375.735 160.3L375.739 160.308L375.744 160.315L380.119 157.896ZM380.865 175.332L376.478 172.935L376.467 172.954L376.456 172.974L380.865 175.332ZM376.533 180.162L373.785 175.985L373.772 175.993L373.759 176.002L376.533 180.162ZM370.744 182.79L369.429 177.966L365.744 178.971V182.79H370.744ZM370.744 183.5H365.744V188.191L370.426 188.49L370.744 183.5ZM377.456 185.844L374.786 190.071H374.786L377.456 185.844ZM382.889 211.518L387.235 213.992L382.889 211.518ZM375.041 218.443L372.889 213.93L375.041 218.443ZM343.614 213.188H338.614V218.188H343.614V213.188ZM373.337 209.849L376.725 213.526L376.727 213.525L373.337 209.849ZM375.112 194.864L370.816 197.422L370.823 197.433L370.829 197.443L375.112 194.864ZM369.75 189.821L367.337 194.2L367.354 194.21L367.371 194.219L369.75 189.821ZM343.614 187.903V182.903H338.614V187.903H343.614ZM343.614 180.233H338.614V185.233H343.614V180.233ZM367.122 178.67L364.946 174.169L364.936 174.174L364.926 174.179L367.122 178.67ZM372.236 174.267L368.092 171.47L368.079 171.488L368.068 171.506L372.236 174.267ZM370.815 159.459L367.261 162.976L367.27 162.985L367.28 162.994L370.815 159.459ZM343.614 156.085V151.085H338.614V156.085H343.614ZM339.807 221V148.273H329.807V221H339.807ZM334.807 153.273H360.233V143.273H334.807V153.273ZM360.233 153.273C364.76 153.273 368.064 154.061 370.419 155.314L375.118 146.487C370.891 144.237 365.838 143.273 360.233 143.273V153.273ZM370.444 155.327C372.964 156.651 374.649 158.32 375.735 160.3L384.503 155.492C382.37 151.601 379.155 148.607 375.093 146.474L370.444 155.327ZM375.744 160.315C376.916 162.437 377.534 164.827 377.534 167.591H387.534C387.534 163.252 386.542 159.179 384.495 155.477L375.744 160.315ZM377.534 167.591C377.534 170.157 377.073 171.845 376.478 172.935L385.253 177.73C386.882 174.748 387.534 171.275 387.534 167.591H377.534ZM376.456 172.974C375.731 174.329 374.837 175.292 373.785 175.985L379.281 184.339C381.827 182.664 383.821 180.407 385.274 177.691L376.456 172.974ZM373.759 176.002C372.436 176.884 371 177.537 369.429 177.966L372.06 187.614C374.655 186.906 377.078 185.808 379.306 184.322L373.759 176.002ZM365.744 182.79V183.5H375.744V182.79H365.744ZM370.426 188.49C371.669 188.569 373.108 189.012 374.786 190.071L380.126 181.616C377.305 179.835 374.271 178.715 371.063 178.51L370.426 188.49ZM374.786 190.071C376.247 190.994 377.591 192.385 378.761 194.432L387.443 189.471C385.583 186.215 383.163 183.534 380.126 181.616L374.786 190.071ZM378.761 194.432C379.747 196.158 380.375 198.497 380.375 201.682H390.375C390.375 197.196 389.488 193.048 387.443 189.471L378.761 194.432ZM380.375 201.682C380.375 204.539 379.735 206.953 378.544 209.045L387.235 213.992C389.358 210.26 390.375 206.116 390.375 201.682H380.375ZM378.544 209.045C377.479 210.917 375.714 212.583 372.889 213.93L377.193 222.956C381.518 220.894 384.985 217.944 387.235 213.992L378.544 209.045ZM372.889 213.93C370.218 215.204 366.377 216 361.085 216V226C367.251 226 372.715 225.092 377.193 222.956L372.889 213.93ZM361.085 216H334.807V226H361.085V216ZM343.614 218.188H361.085V208.188H343.614V218.188ZM361.085 218.188C367.231 218.188 372.905 217.047 376.725 213.526L369.948 206.173C368.939 207.103 366.445 208.188 361.085 208.188V218.188ZM376.727 213.525C380.147 210.37 381.994 206.333 381.994 201.682H371.994C371.994 203.423 371.403 204.831 369.947 206.174L376.727 213.525ZM381.994 201.682C381.994 198.323 381.125 195.156 379.395 192.284L370.829 197.443C371.609 198.738 371.994 200.117 371.994 201.682H381.994ZM379.408 192.305C377.657 189.365 375.18 187.073 372.129 185.423L367.371 194.219C368.96 195.078 370.058 196.148 370.816 197.422L379.408 192.305ZM372.163 185.442C368.971 183.683 365.361 182.903 361.511 182.903V192.903C364.006 192.903 365.889 193.402 367.337 194.2L372.163 185.442ZM361.511 182.903H343.614V192.903H361.511V182.903ZM338.614 187.903V213.188H348.614V187.903H338.614ZM343.614 185.233H359.949V175.233H343.614V185.233ZM359.949 185.233C363.271 185.233 366.427 184.576 369.318 183.162L364.926 174.179C363.556 174.848 361.93 175.233 359.949 175.233V185.233ZM369.299 183.172C372.216 181.761 374.627 179.711 376.404 177.029L368.068 171.506C367.335 172.611 366.337 173.496 364.946 174.169L369.299 183.172ZM376.38 177.064C378.281 174.248 379.153 171.022 379.153 167.591H369.153C369.153 169.274 368.747 170.498 368.092 171.47L376.38 177.064ZM379.153 167.591C379.153 163.092 377.53 159.103 374.351 155.923L367.28 162.994C368.551 164.266 369.153 165.698 369.153 167.591H379.153ZM374.37 155.942C370.811 152.345 365.707 151.085 360.233 151.085V161.085C364.418 161.085 366.369 162.074 367.261 162.976L374.37 155.942ZM360.233 151.085H343.614V161.085H360.233V151.085ZM338.614 156.085V180.233H348.614V156.085H338.614Z" fill="black"/>
<path d="M399.67 221V166.455H407.767V174.693H408.335C409.33 171.994 411.129 169.804 413.733 168.124C416.337 166.443 419.273 165.602 422.54 165.602C423.155 165.602 423.925 165.614 424.848 165.638C425.771 165.661 426.47 165.697 426.943 165.744V174.267C426.659 174.196 426.008 174.089 424.99 173.947C423.996 173.782 422.942 173.699 421.83 173.699C419.178 173.699 416.811 174.255 414.727 175.368C412.668 176.457 411.034 177.972 409.827 179.913C408.643 181.831 408.051 184.021 408.051 186.483V221H399.67Z" fill="white"/>
<path d="M399.67 221H394.67V226H399.67V221ZM399.67 166.455V161.455H394.67V166.455H399.67ZM407.767 166.455H412.767V161.455H407.767V166.455ZM407.767 174.693H402.767V179.693H407.767V174.693ZM408.335 174.693V179.693H411.822L413.027 176.422L408.335 174.693ZM413.733 168.124L411.021 163.923L411.021 163.923L413.733 168.124ZM426.943 165.744H431.943V161.219L427.441 160.769L426.943 165.744ZM426.943 174.267L425.731 179.118L431.943 180.671V174.267H426.943ZM424.99 173.947L424.168 178.879L424.233 178.89L424.299 178.899L424.99 173.947ZM414.727 175.368L417.064 179.788L417.074 179.783L417.083 179.778L414.727 175.368ZM409.827 179.913L405.581 177.273L405.576 177.28L405.572 177.287L409.827 179.913ZM408.051 221V226H413.051V221H408.051ZM404.67 221V166.455H394.67V221H404.67ZM399.67 171.455H407.767V161.455H399.67V171.455ZM402.767 166.455V174.693H412.767V166.455H402.767ZM407.767 179.693H408.335V169.693H407.767V179.693ZM413.027 176.422C413.617 174.821 414.676 173.466 416.444 172.324L411.021 163.923C407.582 166.143 405.042 169.168 403.644 172.965L413.027 176.422ZM416.444 172.324C418.196 171.194 420.18 170.602 422.54 170.602V160.602C418.365 160.602 414.478 161.691 411.021 163.923L416.444 172.324ZM422.54 170.602C423.097 170.602 423.82 170.613 424.72 170.636L424.976 160.639C424.029 160.615 423.213 160.602 422.54 160.602V170.602ZM424.72 170.636C425.611 170.659 426.161 170.691 426.446 170.72L427.441 160.769C426.778 160.703 425.931 160.664 424.976 160.639L424.72 170.636ZM421.943 165.744V174.267H431.943V165.744H421.943ZM428.156 169.416C427.561 169.268 426.624 169.127 425.681 168.995L424.299 178.899C424.788 178.968 425.163 179.024 425.434 179.068C425.57 179.09 425.666 179.107 425.729 179.119C425.802 179.133 425.791 179.133 425.731 179.118L428.156 169.416ZM425.812 169.015C424.52 168.8 423.19 168.699 421.83 168.699V178.699C422.695 178.699 423.472 178.763 424.168 178.879L425.812 169.015ZM421.83 168.699C418.459 168.699 415.265 169.412 412.372 170.958L417.083 179.778C418.356 179.098 419.897 178.699 421.83 178.699V168.699ZM412.39 170.948C409.564 172.442 407.265 174.565 405.581 177.273L414.073 182.554C414.803 181.379 415.772 180.472 417.064 179.788L412.39 170.948ZM405.572 177.287C403.856 180.066 403.051 183.182 403.051 186.483H413.051C413.051 184.86 413.43 183.596 414.081 182.54L405.572 177.287ZM403.051 186.483V221H413.051V186.483H403.051ZM408.051 216H399.67V226H408.051V216Z" fill="black"/>
<path d="M459.83 222.136C454.905 222.136 450.585 220.964 446.868 218.621C443.175 216.277 440.286 212.998 438.203 208.784C436.143 204.57 435.114 199.646 435.114 194.011C435.114 188.33 436.143 183.37 438.203 179.132C440.286 174.894 443.175 171.604 446.868 169.26C450.585 166.916 454.905 165.744 459.83 165.744C464.754 165.744 469.063 166.916 472.756 169.26C476.473 171.604 479.361 174.894 481.42 179.132C483.504 183.37 484.545 188.33 484.545 194.011C484.545 199.646 483.504 204.57 481.42 208.784C479.361 212.998 476.473 216.277 472.756 218.621C469.063 220.964 464.754 222.136 459.83 222.136ZM459.83 214.608C463.57 214.608 466.648 213.649 469.062 211.732C471.477 209.814 473.265 207.293 474.425 204.168C475.585 201.043 476.165 197.657 476.165 194.011C476.165 190.366 475.585 186.968 474.425 183.82C473.265 180.671 471.477 178.126 469.062 176.185C466.648 174.243 463.57 173.273 459.83 173.273C456.089 173.273 453.011 174.243 450.597 176.185C448.182 178.126 446.394 180.671 445.234 183.82C444.074 186.968 443.494 190.366 443.494 194.011C443.494 197.657 444.074 201.043 445.234 204.168C446.394 207.293 448.182 209.814 450.597 211.732C453.011 213.649 456.089 214.608 459.83 214.608Z" fill="#3780FF"/>
<path d="M446.868 218.621L444.189 222.842L444.195 222.846L444.201 222.85L446.868 218.621ZM438.203 208.784L433.711 210.98L433.716 210.99L433.721 211L438.203 208.784ZM438.203 179.132L433.716 176.926L433.711 176.936L433.706 176.946L438.203 179.132ZM446.868 169.26L444.201 165.031L444.195 165.034L444.189 165.038L446.868 169.26ZM472.756 169.26L470.077 173.482L470.083 173.485L470.089 173.489L472.756 169.26ZM481.42 179.132L476.923 181.318L476.928 181.328L476.933 181.338L481.42 179.132ZM481.42 208.784L476.938 206.568L476.933 206.578L476.928 206.588L481.42 208.784ZM472.756 218.621L470.089 214.391L470.083 214.395L470.077 214.399L472.756 218.621ZM469.062 211.732L465.953 207.816L469.062 211.732ZM474.425 204.168L479.112 205.908L474.425 204.168ZM474.425 183.82L479.116 182.091L479.116 182.091L474.425 183.82ZM469.062 176.185L472.195 172.288V172.288L469.062 176.185ZM450.597 176.185L447.464 172.288L447.464 172.288L450.597 176.185ZM445.234 183.82L440.543 182.091L440.543 182.091L445.234 183.82ZM445.234 204.168L440.547 205.908H440.547L445.234 204.168ZM450.597 211.732L453.706 207.816L450.597 211.732ZM459.83 217.136C455.732 217.136 452.36 216.173 449.535 214.391L444.201 222.85C448.81 225.756 454.079 227.136 459.83 227.136V217.136ZM449.547 214.399C446.685 212.583 444.394 210.025 442.685 206.568L433.721 211C436.179 215.971 439.664 219.971 444.189 222.842L449.547 214.399ZM442.695 206.588C441.03 203.182 440.114 199.036 440.114 194.011H430.114C430.114 200.256 431.257 205.958 433.711 210.98L442.695 206.588ZM440.114 194.011C440.114 188.933 441.033 184.748 442.7 181.318L433.706 176.946C431.254 181.991 430.114 187.726 430.114 194.011H440.114ZM442.69 181.338C444.401 177.858 446.692 175.293 449.547 173.482L444.189 165.038C439.657 167.914 436.172 171.931 433.716 176.926L442.69 181.338ZM449.535 173.489C452.36 171.708 455.732 170.744 459.83 170.744V160.744C454.079 160.744 448.81 162.124 444.201 165.031L449.535 173.489ZM459.83 170.744C463.928 170.744 467.282 171.708 470.077 173.482L475.435 165.038C470.843 162.124 465.58 160.744 459.83 160.744V170.744ZM470.089 173.489C472.96 175.3 475.241 177.855 476.923 181.318L485.917 176.946C483.481 171.933 479.985 167.908 475.423 165.031L470.089 173.489ZM476.933 181.338C478.617 184.764 479.545 188.941 479.545 194.011H489.545C489.545 187.718 488.39 181.976 485.908 176.926L476.933 181.338ZM479.545 194.011C479.545 199.028 478.62 203.167 476.938 206.568L485.903 211C488.388 205.973 489.545 200.263 489.545 194.011H479.545ZM476.928 206.588C475.248 210.027 472.967 212.577 470.089 214.391L475.423 222.85C479.978 219.977 483.474 215.969 485.913 210.98L476.928 206.588ZM470.077 214.399C467.282 216.172 463.928 217.136 459.83 217.136V227.136C465.58 227.136 470.843 225.757 475.435 222.842L470.077 214.399ZM459.83 219.608C464.451 219.608 468.696 218.407 472.172 215.647L465.953 207.816C464.599 208.891 462.689 209.608 459.83 209.608V219.608ZM472.172 215.647C475.359 213.116 477.661 209.816 479.112 205.908L469.737 202.428C468.868 204.769 467.595 206.512 465.953 207.816L472.172 215.647ZM479.112 205.908C480.497 202.176 481.165 198.195 481.165 194.011H471.165C471.165 197.119 470.672 199.909 469.737 202.428L479.112 205.908ZM481.165 194.011C481.165 189.827 480.497 185.839 479.116 182.091L469.733 185.548C470.672 188.097 471.165 190.904 471.165 194.011H481.165ZM479.116 182.091C477.67 178.165 475.375 174.844 472.195 172.288L465.93 180.082C467.58 181.408 468.859 183.177 469.733 185.548L479.116 182.091ZM472.195 172.288C468.719 169.493 464.465 168.273 459.83 168.273V178.273C462.675 178.273 464.576 178.994 465.93 180.082L472.195 172.288ZM459.83 168.273C455.194 168.273 450.94 169.493 447.464 172.288L453.729 180.082C455.083 178.994 456.984 178.273 459.83 178.273V168.273ZM447.464 172.288C444.284 174.844 441.989 178.165 440.543 182.091L449.926 185.548C450.8 183.177 452.08 181.408 453.729 180.082L447.464 172.288ZM440.543 182.091C439.162 185.839 438.494 189.827 438.494 194.011H448.494C448.494 190.904 448.987 188.097 449.926 185.548L440.543 182.091ZM438.494 194.011C438.494 198.195 439.162 202.176 440.547 205.908L449.922 202.428C448.987 199.909 448.494 197.119 448.494 194.011H438.494ZM440.547 205.908C441.998 209.816 444.3 213.116 447.487 215.647L453.706 207.816C452.064 206.512 450.791 204.769 449.922 202.428L440.547 205.908ZM447.487 215.647C450.963 218.407 455.208 219.608 459.83 219.608V209.608C456.97 209.608 455.06 208.891 453.706 207.816L447.487 215.647Z" fill="black"/>
</svg>
