<svg width="360" height="360" viewBox="0 0 360 360" fill="none" xmlns="http://www.w3.org/2000/svg">
<g clip-path="url(#clip0_1_2)">
<rect width="360" height="360" fill="white"/>
<path fill-rule="evenodd" clip-rule="evenodd" d="M306.675 -46C459.259 -46 573 59.2243 573 179.671C573 300.306 459.497 406 306.675 406C151.886 406 33 301.86 33 179.671C33 57.6684 152.121 -46 306.675 -46Z" fill="#3780FF"/>
<ellipse cx="55" cy="32.5" rx="123" ry="114.5" fill="#E83E8C"/>
<path fill-rule="evenodd" clip-rule="evenodd" d="M46.2821 126.878C80.5883 122.143 103.546 158.782 131.841 177.302C160.491 196.054 197.135 206.775 212.743 235.831C229.382 266.808 236.462 307.069 217.596 336.951C199.143 366.179 153.959 365.136 121.364 380.569C95.6697 392.734 75.7963 415.346 47.0407 417.703C16.9696 420.168 -10.9142 407.036 -37.3482 393.578C-67.3376 378.31 -103.515 364.934 -115.086 335.161C-126.717 305.235 -113.811 270.812 -95.5375 243.854C-79.593 220.332 -44.9316 217.089 -22.5211 198.604C3.92099 176.794 11.2276 131.715 46.2821 126.878Z" fill="#8261EE"/>
<path fill-rule="evenodd" clip-rule="evenodd" d="M130.554 50.0359C153.84 50.558 178.873 48.6271 198.947 55.4365C218.847 62.1869 226.543 76.1422 239.709 87.0632C252.109 97.3482 278.36 105.891 274.643 118.224C270.274 132.722 223.591 134.386 221.036 149.027C217.923 166.873 269.025 179.636 260.908 196.953C254.508 210.607 216.639 211.757 192.127 210.705C168.509 209.69 152.453 196.544 130.554 191.355C117.415 188.241 103.569 186.611 89.3656 186.353C64.8606 185.906 38.7067 195.748 16.9148 189.284C-2.62757 183.488 -12.4385 168.64 -12.9889 155.994C-13.54 143.334 6.61058 133.77 13.9789 121.837C20.4258 111.396 20.9731 100.353 27.768 89.9853C36.4367 76.7584 39.1854 60.2239 59.545 52.3108C79.4385 44.5789 106.565 49.498 130.554 50.0359Z" fill="#E83E8C"/>
<g filter="url(#filter0_d_1_2)">
<path d="M183 92.575V110.425V92.575ZM233 84.925V118.075V84.925ZM83 92.575V110.425V92.575ZM283 93.85V109.15V93.85ZM133 76V127V76Z" fill="url(#paint0_angular_1_2)" shape-rendering="crispEdges"/>
<path d="M185.5 110.425V92.575H183H180.5V110.425H183H185.5ZM235.5 118.075V84.925H233H230.5V118.075H233H235.5ZM85.5 110.425V92.575H83H80.5V110.425H83H85.5ZM285.5 109.15V93.85H283H280.5V109.15H283H285.5ZM135.5 127V76H133H130.5V127H133H135.5Z" stroke="white" stroke-width="5" stroke-linecap="round" shape-rendering="crispEdges"/>
<path d="M185.5 110.425V92.575H183H180.5V110.425H183H185.5ZM235.5 118.075V84.925H233H230.5V118.075H233H235.5ZM85.5 110.425V92.575H83H80.5V110.425H83H85.5ZM285.5 109.15V93.85H283H280.5V109.15H283H285.5ZM135.5 127V76H133H130.5V127H133H135.5Z" stroke="white" stroke-width="5" stroke-linecap="round" shape-rendering="crispEdges"/>
</g>
<path d="M156.563 130.521C153.156 143.719 154.167 152.99 159.599 158.328C165.026 163.661 174.276 167.156 187.349 168.797C184.38 185.823 188 193.807 198.198 192.755C208.396 191.708 214.526 187.469 216.583 180.047C232.521 184.526 241.161 180.776 242.5 168.797C244.505 150.828 234.818 136.5 230.844 136.5C226.875 136.5 216.583 136.016 216.583 130.521C216.583 125.026 204.562 121.927 193.714 121.927C182.865 121.927 189.391 114.609 174.495 117.5C164.563 119.427 158.583 123.766 156.563 130.521V130.521Z" stroke="black" stroke-width="4" stroke-linejoin="round"/>
<path d="M154.146 284.167C149.042 267.526 141.344 255.115 131.047 246.943C115.604 234.687 91.0677 242.307 82.0052 229.661C72.9427 217.016 88.3542 193.766 93.7604 180.047C99.1719 166.328 73.0312 161.479 76.0833 157.583C78.1146 154.984 91.3281 147.495 115.714 135.104C122.641 95.5937 148.229 75.8333 192.49 75.8333C258.875 75.8333 284.167 132.115 284.167 167.917C284.167 203.708 253.542 242.271 209.917 250.589C206.016 256.266 211.641 267.464 226.792 284.167" stroke="black" stroke-width="4.667" stroke-linecap="round" stroke-linejoin="round"/>
<path d="M213.854 187.812C208.557 191.099 201.292 196.563 198.229 200.833C190.578 211.51 184.375 218.01 183.021 224.833" stroke="black" stroke-width="4" stroke-linecap="round"/>
</g>
<defs>
<filter id="filter0_d_1_2" x="74" y="71" width="218" height="69" filterUnits="userSpaceOnUse" color-interpolation-filters="sRGB">
<feFlood flood-opacity="0" result="BackgroundImageFix"/>
<feColorMatrix in="SourceAlpha" type="matrix" values="0 0 0 0 0 0 0 0 0 0 0 0 0 0 0 0 0 0 127 0" result="hardAlpha"/>
<feOffset dy="4"/>
<feGaussianBlur stdDeviation="2"/>
<feComposite in2="hardAlpha" operator="out"/>
<feColorMatrix type="matrix" values="0 0 0 0 0 0 0 0 0 0 0 0 0 0 0 0 0 0 0.25 0"/>
<feBlend mode="normal" in2="BackgroundImageFix" result="effect1_dropShadow_1_2"/>
<feBlend mode="normal" in="SourceGraphic" in2="effect1_dropShadow_1_2" result="shape"/>
</filter>
<radialGradient id="paint0_angular_1_2" cx="0" cy="0" r="1" gradientUnits="userSpaceOnUse" gradientTransform="translate(183 101.5) rotate(90) scale(25.5 100)">
<stop stop-color="white"/>
<stop offset="1" stop-color="white" stop-opacity="0"/>
</radialGradient>
<clipPath id="clip0_1_2">
<rect width="360" height="360" fill="white"/>
</clipPath>
</defs>
</svg>
